<svg width="610" height="220" viewBox="0 0 610 220" fill="none" xmlns="http://www.w3.org/2000/svg" role="img" aria-labelledby="title desc">
  <title id="title">BatonJS logo</title>
  <desc id="desc">BatonJS wordmark with a modern geometric B mark, designed to work on both light and dark backgrounds.</desc>
  <defs>
    <linearGradient id="flow" x1="65" y1="184" x2="190" y2="58" gradientUnits="userSpaceOnUse">
      <stop stop-color="#22D3EE"/>
      <stop offset="1" stop-color="#2DD4BF"/>
    </linearGradient>
  </defs>
  <rect x="10" y="10" width="590" height="200" rx="42" fill="#F8FAFC"/>
  <rect x="10" y="10" width="590" height="200" rx="42" stroke="#CBD5E1" stroke-width="2"/>
  <g transform="translate(20 18) scale(.72)">
    <rect x="24" y="24" width="208" height="208" rx="46" fill="#08111F"/>
    <path d="M76 184V56" stroke="#F8FAFC" stroke-width="20" stroke-linecap="round"/>
    <path d="M76 66H136C164 66 184 82 184 106C184 130 164 145 136 145H76" stroke="url(#flow)" stroke-width="19" stroke-linecap="round" stroke-linejoin="round"/>
    <path d="M76 112H142C174 112 196 129 196 156C196 179 175 194 142 194H76" stroke="#F8FAFC" stroke-width="19" stroke-linecap="round" stroke-linejoin="round"/>
    <path d="M99 171L176 79" stroke="#22D3EE" stroke-width="8" stroke-linecap="round"/>
    <circle cx="76" cy="56" r="8" fill="#22D3EE"/>
    <circle cx="196" cy="156" r="8" fill="#2DD4BF"/>
  </g>
  <g font-family="Inter, ui-sans-serif, system-ui, -apple-system, BlinkMacSystemFont, 'Segoe UI', sans-serif">
    <text x="226" y="120" fill="#08111F" font-size="76" font-weight="820">Baton</text>
    <text x="464" y="120" fill="#0891B2" font-size="76" font-weight="820">JS</text>
    <text x="231" y="158" fill="#475569" font-size="23" font-weight="560">AI agent workflows</text>
  </g>
</svg>
