<svg width="960" height="256" viewBox="0 0 960 256" fill="none" xmlns="http://www.w3.org/2000/svg" role="img" aria-labelledby="title desc">
  <title id="title">BatonJS logo</title>
  <desc id="desc">A baton-shaped workflow mark with branching flow nodes and the BatonJS wordmark.</desc>
  <defs>
    <linearGradient id="batonjs-a" x1="57" y1="214" x2="251" y2="20" gradientUnits="userSpaceOnUse">
      <stop stop-color="#1D4ED8"/>
      <stop offset="0.52" stop-color="#0F766E"/>
      <stop offset="1" stop-color="#F59E0B"/>
    </linearGradient>
    <linearGradient id="batonjs-b" x1="37" y1="128" x2="272" y2="128" gradientUnits="userSpaceOnUse">
      <stop stop-color="#0F172A"/>
      <stop offset="1" stop-color="#111827"/>
    </linearGradient>
  </defs>

  <g>
    <rect x="16" y="16" width="224" height="224" rx="52" fill="#F8FAFC"/>
    <rect x="16" y="16" width="224" height="224" rx="52" stroke="#E2E8F0" stroke-width="2"/>
    <path d="M64 173.5L178.5 59" stroke="url(#batonjs-b)" stroke-width="22" stroke-linecap="round"/>
    <path d="M78 188L194 72" stroke="url(#batonjs-a)" stroke-width="10" stroke-linecap="round"/>
    <path d="M100 151C135 151 151 136 151 101" stroke="#0F766E" stroke-width="10" stroke-linecap="round"/>
    <path d="M118 169C157 169 180 146 180 107" stroke="#1D4ED8" stroke-width="10" stroke-linecap="round"/>
    <path d="M98 151H73" stroke="#0F766E" stroke-width="10" stroke-linecap="round"/>
    <path d="M151 99V74" stroke="#0F766E" stroke-width="10" stroke-linecap="round"/>
    <path d="M118 169H91" stroke="#1D4ED8" stroke-width="10" stroke-linecap="round"/>
    <path d="M180 107V80" stroke="#1D4ED8" stroke-width="10" stroke-linecap="round"/>
    <circle cx="64" cy="173.5" r="16" fill="#0F172A"/>
    <circle cx="178.5" cy="59" r="16" fill="#0F172A"/>
    <circle cx="73" cy="151" r="13" fill="#0F766E"/>
    <circle cx="151" cy="74" r="13" fill="#0F766E"/>
    <circle cx="91" cy="169" r="13" fill="#1D4ED8"/>
    <circle cx="180" cy="80" r="13" fill="#1D4ED8"/>
    <circle cx="64" cy="173.5" r="6" fill="#F8FAFC"/>
    <circle cx="178.5" cy="59" r="6" fill="#F8FAFC"/>
  </g>

  <g font-family="Inter, ui-sans-serif, system-ui, -apple-system, BlinkMacSystemFont, 'Segoe UI', sans-serif" font-weight="800">
    <text x="292" y="162" fill="#0F172A" font-size="104">Baton</text>
    <text x="610" y="162" fill="#F59E0B" font-size="104">JS</text>
    <text x="298" y="202" fill="#475569" font-size="26" font-weight="600">agent workflows in parallel, pipeline, and phases</text>
  </g>
</svg>
